<svg width="17" height="15" viewBox="0 0 17 15" fill="none" xmlns="http://www.w3.org/2000/svg">
<path d="M14.875 10.5288V2.02884H2.125V10.5288H14.875ZM14.875 0.634308C15.2734 0.634308 15.6055 0.778188 15.8711 1.06595C16.1589 1.33157 16.3027 1.65254 16.3027 2.02884V10.5288C16.3027 10.9273 16.1589 11.2704 15.8711 11.5581C15.6055 11.8238 15.2734 11.9566 14.875 11.9566H9.92773V13.3843H11.3223V14.7788H5.67773V13.3843H7.07227V11.9566H2.125C1.72656 11.9566 1.38346 11.8238 1.0957 11.5581C0.830078 11.2704 0.697266 10.9273 0.697266 10.5288V2.02884C0.697266 1.65254 0.830078 1.33157 1.0957 1.06595C1.38346 0.778188 1.72656 0.634308 2.125 0.634308H14.875ZM3.55273 3.45657H9.92773V7.00931H3.55273V3.45657ZM10.625 3.45657H13.4473V4.88431H10.625V3.45657ZM13.4473 5.58157V9.13431H10.625V5.58157H13.4473ZM3.55273 7.70657H6.375V9.13431H3.55273V7.70657ZM7.07227 7.70657H9.92773V9.13431H7.07227V7.70657Z" fill="#28476B" fill-opacity="0.4"/>
</svg>
