<svg width="13" height="15" viewBox="0 0 13 15" fill="none" xmlns="http://www.w3.org/2000/svg">
<path d="M11.4473 2.06314H8.49219C8.33724 1.64257 8.07161 1.29947 7.69531 1.03384C7.34115 0.768219 6.94271 0.635406 6.5 0.635406C6.05729 0.635406 5.64779 0.768219 5.27148 1.03384C4.91732 1.29947 4.66276 1.64257 4.50781 2.06314H1.55273C1.1543 2.06314 0.811198 2.20702 0.523438 2.49478C0.257812 2.76041 0.125 3.09244 0.125 3.49088V13.3854C0.125 13.7838 0.257812 14.1269 0.523438 14.4147C0.811198 14.6803 1.1543 14.8131 1.55273 14.8131H11.4473C11.8457 14.8131 12.1777 14.6803 12.4434 14.4147C12.7311 14.1269 12.875 13.7838 12.875 13.3854V3.49088C12.875 3.09244 12.7311 2.76041 12.4434 2.49478C12.1777 2.20702 11.8457 2.06314 11.4473 2.06314ZM6.5 2.06314C6.69922 2.06314 6.86523 2.12955 6.99805 2.26236C7.13086 2.39517 7.19727 2.56119 7.19727 2.76041C7.19727 2.95963 7.13086 3.13671 6.99805 3.29166C6.86523 3.42447 6.69922 3.49088 6.5 3.49088C6.30078 3.49088 6.13477 3.42447 6.00195 3.29166C5.86914 3.13671 5.80273 2.95963 5.80273 2.76041C5.80273 2.56119 5.86914 2.39517 6.00195 2.26236C6.13477 2.12955 6.30078 2.06314 6.5 2.06314ZM2.94727 4.88541H10.0527V3.49088H11.4473V13.3854H1.55273V3.49088H2.94727V4.88541Z" fill="#28476B" fill-opacity="0.4"/>
</svg>
